<svg height="512pt" viewBox="0 -75 512 512" width="512pt" xmlns="http://www.w3.org/2000/svg"><path d="m452 0h-392c-33.085938 0-60 26.914062-60 60v242c0 33.085938 26.914062 60 60 60h392c33.085938 0 60-26.914062 60-60v-242c0-33.085938-26.914062-60-60-60zm20 302c0 11.027344-8.972656 20-20 20h-392c-11.027344 0-20-8.972656-20-20v-242c0-11.027344 8.972656-20 20-20h392c11.027344 0 20 8.972656 20 20zm-118-199c-43.007812 0-78 34.992188-78 78 0 13.789062 3.613281 26.746094 9.917969 38h-59.835938c6.304688-11.253906 9.917969-24.210938 9.917969-38 0-43.007812-34.992188-78-78-78s-78 34.992188-78 78c0 43.011719 34.992188 78 78 78h196c43.007812 0 78-34.988281 78-78 0-43.007812-34.992188-78-78-78zm-234 78c0-20.953125 17.046875-38 38-38s38 17.046875 38 38-17.046875 38-38 38-38-17.046875-38-38zm234 38c-20.953125 0-38-17.046875-38-38s17.046875-38 38-38 38 17.046875 38 38-17.046875 38-38 38zm0 0"/></svg>